PathFileType	4	(X/Y/Z)	C:/Users/beibeiliu/ov580/test_trc/capture2\sequence.2_training_dense_right.trc
DataRate	CameraRate	NumFrames	NumMarkers	Units	OrigDataRate	OrigDataStartFrame	OrigNumFrames
120	120	24	19	mm	120	274	313
Frame#	Time	ThumbCMC			ThumbMCP			ThumbIP			ThumbTip			IndexMCP			IndexPIP			IndexTip			MiddleMCP			MiddlePIP			MiddleTip			RingMCP			RingPIP			RingTip			PinkyMCP			PinkyPIP			PinkyTip			BackHand1			BackHand2			BackHand3	
		X0	Y0	Z0	X1	Y1	Z1	X2	Y2	Z2	X3	Y3	Z3	X4	Y4	Z4	X5	Y5	Z5	X6	Y6	Z6	X7	Y7	Z7	X8	Y8	Z8	X9	Y9	Z9	X10	Y10	Z10	X11	Y11	Z11	X12	Y12	Z12	X13	Y13	Z13	X14	Y14	Z14	X15	Y15	Z15	X16	Y16	Z16	X17	Y17	Z17	X18	Y18	Z18	
273	2.275	251.064	-44.6536	-8.24298	243.087	-32.2532	-39.8478	241.077	-24.8486	-64.9178	230.586	-35.1202	-89.5094	259.666	-83.0667	-69.4025	251.118	-67.4486	-96.1987	233.653	-41.726	-83.5967	239.26	-93.4484	-75.3656	228.736	-68.6617	-98.6436	218.892	-42.6094	-79.0605	220.538	-96.3499	-74.9019	210.754	-74.4164	-94.2481	209.536	-43.7433	-79.45	201.007	-101.228	-61.7205	200.442	-85.2138	-86.635	198.077	-54.2272	-83.1867	223.39	-100.539	-14.7301	218.236	-93.5933	8.85726	247.456	-86.4833	-6.41723	
274	2.28333	252.116	-46.6293	-4.80114	245.824	-31.8331	-34.5974	244.36	-28.48	-67.983	231.927	-38.6535	-86.4869	264.506	-84.4784	-70.9489	253.103	-69.8887	-94.1981	240.945	-41.0196	-84.835	245.711	-93.4796	-76.9818	233.077	-71.7595	-96.8497	224.644	-42.5242	-77.4187	224.192	-99.3967	-75.4281	218.794	-79.2216	-92.869	210.578	-47.0316	-78.3842	203.716	-103.157	-59.2617	202.003	-86.0475	-86.0487	200.088	-55.7469	-79.8806	226.383	-103.364	-14.5919	217.423	-96.6602	15.9694	248.378	-87.2996	-3.3498	
275	2.29167	254.573	-47.4639	-5.88401	249.81	-30.6768	-37.7856	245.529	-32.8337	-64.035	236.773	-39.3402	-86.8078	265.952	-86.6361	-64.6005	259.207	-69.6415	-92.9474	244.269	-40.0769	-81.3349	247.557	-96.8606	-72.6613	239.39	-73.7347	-95.2338	227.451	-47.6	-77.9772	228.198	-101.428	-67.9408	219.442	-80.2579	-91.7285	217.073	-50.9466	-80.3968	210.335	-104.306	-61.8837	210.727	-86.6316	-84.0365	206.885	-56.9414	-81.0564	225.403	-104.474	-17.1901	223.386	-95.6211	15.2784	250.109	-87.0055	0.18651	
276	2.3	255.978	-45.3124	-2.43931	251.844	-28.8904	-35.423	250.613	-26.5937	-63.6788	240.745	-38.5799	-87.5498	271.946	-85.6445	-62.2738	261.993	-72.1412	-90.3692	248.34	-40.3264	-80.6031	256.032	-94.6277	-68.2083	243.958	-74.5168	-94.409	230.129	-48.5438	-78.2998	236.299	-100.191	-71.4618	227.816	-78.265	-91.9095	220.293	-52.2811	-81.1128	219.355	-103.254	-59.4343	216.821	-87.0924	-83.6399	211.476	-56.5206	-81.3724	231.962	-102.217	-15.6539	222.135	-94.1983	16.3668	254.049	-86.2778	0.305848	
277	2.30833	259.001	-46.4488	-6.7567	253.826	-32.2615	-35.848	253.756	-28.2926	-65.0121	244.345	-37.4568	-82.811	275.656	-84.9594	-63.8631	270.143	-70.0225	-89.2578	249.915	-41.0358	-78.8618	259.116	-95.4063	-68.1484	250.704	-76.9632	-93.4082	233.758	-46.0256	-73.7691	242.356	-99.236	-69.6532	231.81	-82.5689	-91.1375	227.95	-48.9098	-79.1478	221.175	-102.98	-57.4235	217.743	-86.7474	-84.3906	218.926	-56.9169	-78.9183	234.61	-101.916	-13.5944	228.056	-93.3968	17.7781	262.043	-83.6783	2.95117	
278	2.31667	264.252	-41.3408	-5.68972	257.574	-30.9855	-37.4049	257.903	-26.8819	-64.6294	249.201	-38.9239	-87.1441	282.987	-82.4866	-62.3067	273.752	-67.3263	-88.8972	255.983	-43.2579	-81.6375	262.493	-94.2593	-68.8875	257.955	-75.5697	-92.9517	242.813	-44.6883	-77.9972	248.337	-97.9949	-69.0624	239.088	-80.1621	-91.1856	230.559	-50.1942	-79.7137	226.396	-102.716	-56.1023	222.671	-90.3177	-83.9748	222.147	-54.4298	-80.8531	239.003	-99.7088	-13.3734	229.136	-93.0395	18.0199	265.389	-80.705	3.36738	
279	2.325	266.199	-38.6747	-3.31565	260.799	-25.4731	-35.4212	262.823	-21.6766	-62.8325	255.156	-34.788	-84.2492	284.196	-80.9108	-61.2808	276.688	-65.2679	-87.4629	263.736	-38.6478	-83.0589	268.674	-91.0212	-66.735	260.459	-70.8824	-92.8597	246.922	-43.2136	-78.6303	253.405	-96.2999	-66.6705	244.623	-78.5249	-91.0945	234.518	-49.611	-82.1011	229.069	-101.997	-56.6677	228.626	-88.648	-83.7248	229.318	-54.9702	-83.3952	240.082	-97.8075	-8.64024	236.812	-88.9908	17.0539	267.469	-79.6356	5.48626	
280	2.33333	268.458	-33.5131	-1.93056	262.864	-23.2432	-33.4827	265.047	-23.7077	-65.2123	259.268	-33.4502	-87.5896	288.605	-77.2807	-59.0239	283.827	-60.5521	-87.8201	267.513	-33.8412	-80.0125	275.718	-88.0136	-69.8949	266.423	-70.7825	-91.484	249.901	-39.4288	-75.3528	260.197	-92.7692	-67.7386	253.591	-77.6209	-90.2832	238.466	-46.4376	-80.8958	237.568	-98.6583	-54.3648	235.79	-86.2747	-84.6869	235.469	-53.536	-82.2873	248.579	-95.0258	-12.3165	238.752	-86.6594	16.0144	271.866	-74.4616	3.05567	
281	2.34167	272.286	-31.7308	-3.15298	267.117	-20.5108	-36.8326	268.724	-20.9913	-63.8381	264.374	-28.8715	-87.4521	294.528	-72.6333	-57.3283	291.247	-57.5975	-86.2997	270.779	-33.8514	-82.5624	280.661	-85.1072	-65.4918	275.128	-62.3013	-92.0931	254.52	-37.3826	-76.5034	261.372	-91.3643	-63.5265	258.025	-72.4272	-90.743	246.974	-42.0666	-79.514	243.75	-95.3827	-55.1234	244.176	-84.5636	-83.5496	237.094	-49.6546	-83.6174	252.341	-89.7432	-11.7609	243.617	-81.8362	15.6244	276.078	-70.4449	5.16987	
282	2.35	275.551	-25.911	-3.40366	270.228	-12.7268	-36.0109	271.645	-12.0533	-61.1169	267.907	-23.5472	-84.8725	303.335	-64.8167	-59.4956	293.528	-54.1586	-85.7306	273.412	-28.24	-81.4093	286.371	-79.9035	-67.8558	279.019	-58.4622	-91.3967	261.074	-31.2007	-75.6769	270.82	-86.0245	-67.5564	264.079	-68.4067	-90.0346	253.206	-39.1004	-81.4459	250.189	-91.854	-54.362	251.765	-79.1323	-84.8129	247.886	-47.566	-84.0224	256.299	-88.3203	-10.1376	247.547	-76.8575	18.2936	281.594	-66.0408	5.63983	
283	2.35833	275.877	-20.149	-3.18974	270.658	-9.71702	-37.5215	272.426	-8.86543	-62.8545	270.456	-20.8511	-84.844	308.579	-57.3762	-54.064	299.288	-44.7666	-85.5086	279.784	-19.3878	-82.464	294.191	-71.3668	-62.7157	285.113	-54.4353	-90.1277	264.728	-27.4035	-77.1063	274.868	-82.1952	-64.3682	270.141	-63.4946	-90.729	255.833	-36.1527	-83.5773	255.007	-87.821	-54.5683	256.286	-77.5637	-84.271	252.263	-47.1394	-84.3834	262.205	-80.4906	-11.0494	248.719	-74.4685	16.3687	283.696	-58.8583	7.68988	
284	2.36667	276.404	-15.4545	-2.50426	272.644	-3.58124	-37.5553	275.774	-0.575563	-60.5792	275.501	-13.475	-89.2438	313.236	-49.3382	-52.513	308.142	-38.5949	-84.3193	286.433	-12.5839	-83.53	300.439	-64.7319	-63.2995	292.679	-46.4367	-90.835	272.041	-19.0912	-77.2602	283.561	-75.5272	-65.2406	276.67	-60.7464	-90.1489	262.324	-28.5427	-83.2145	266.061	-79.8854	-56.5022	268.589	-68.336	-83.2589	259.053	-41.96	-84.6782	265.097	-75.8418	-12.6089	253.548	-68.8061	17.7332	283.907	-55.0221	8.35884	
285	2.375	280.382	-9.65736	-5.34137	274.667	-0.124823	-37.9511	279.079	5.66478	-62.8286	278.688	-7.71341	-86.8269	317.929	-41.4964	-53.7424	309.997	-32.6	-83.6655	290.929	-6.73582	-84.8251	306.844	-55.7032	-61.3859	298.916	-38.3224	-90.2639	275.563	-14.3287	-79.5889	288.618	-67.5557	-66.6842	285.163	-53.2571	-90.7588	264.703	-23.4896	-84.8451	270.72	-75.8978	-58.6524	273.937	-62.2544	-85.1916	263.352	-35.4159	-88.7167	273.435	-67.6216	-10.4111	260.309	-62.6884	11.7815	288.796	-44.6338	8.63761	
286	2.38333	280.629	-1.37203	-7.16891	276.306	10.1655	-40.1628	280.483	14.8791	-65.9277	281.01	1.34826	-89.7892	318.901	-33.4728	-54.6372	316.048	-24.049	-83.3684	294.081	0.739869	-86.43	309.945	-48.3239	-66.6676	301.16	-33.3975	-91.9498	280.079	-3.63194	-78.5266	295.145	-58.4767	-67.9048	289.011	-40.1678	-92.3039	272.351	-15.882	-85.0874	273.614	-67.452	-57.6624	278.613	-56.7988	-85.6922	266.763	-24.8186	-88.7361	274.309	-60.0818	-13.1314	261.301	-54.3744	12.2346	293.93	-35.6776	6.71666	
287	2.39167	280.385	10.4209	-5.6218	275.054	18.7462	-40.8046	281.172	23.5113	-66.3201	282.21	6.86435	-88.8329	323.19	-22.2228	-54.1483	321.857	-10.5789	-84.4589	292.913	11.0035	-86.0645	315.078	-35.084	-62.9027	307.17	-22.2847	-92.6584	281.328	5.69486	-78.1367	296.4	-50.3639	-67.9697	292.299	-30.1265	-93.9439	269.384	-5.19165	-83.1665	279.634	-59.9801	-61.9262	282.047	-45.8271	-89.7467	273.819	-21.0715	-91.4676	277.732	-54.5285	-15.2302	264.402	-48.5767	6.61156	294.246	-24.5222	4.37722	
288	2.4	278.27	21.0161	-7.01122	275.96	29.9612	-44.4757	280.774	31.1776	-71.7435	282.749	16.0571	-95.0692	323.679	-11.5601	-57.3477	320.937	-2.60033	-86.4869	292.48	19.6275	-86.9951	317.672	-25.7498	-68.9063	305.99	-10.8224	-94.7339	282.807	12.9342	-82.4998	301.134	-37.1623	-67.0558	294.881	-22.7977	-95.3952	275.061	3.79519	-83.67	283.744	-50.9032	-64.9446	284.342	-42.5922	-91.5898	274.343	-8.4246	-92.6275	280.307	-42.8839	-15.2786	270.024	-37.9262	6.58397	291.424	-17.733	2.00836	
289	2.40833	278.034	26.8584	-10.5648	272.291	37.7097	-44.3603	276.438	43.3748	-71.2094	278.882	25.6499	-92.7812	325.245	0.97019	-58.4469	318.778	8.12377	-88.6749	295.376	28.9145	-91.0707	317.847	-13.3275	-68.5362	307.229	-2.62889	-96.7663	278.644	19.5153	-84.5453	302.393	-27.9395	-73.6985	293.216	-12.2131	-99.0812	271.109	9.7274	-86.4413	284.629	-42.0467	-69.2843	286.875	-28.1366	-93.4127	273.24	-3.63123	-98.8872	277.685	-35.9405	-20.5305	265.036	-33.3631	4.38778	295.151	-9.6205	-0.0974978	
290	2.41667	276.073	35.8826	-12.567	269.133	44.4449	-49.153	274.037	47.4674	-76.2546	277.107	33.5598	-99.3461	324.601	12.1369	-64.7384	314.53	20.9425	-93.6404	290.335	36.8129	-94.0437	315.161	-4.62404	-75.2051	303.65	11.5103	-100.382	275.58	30.711	-84.4056	300.674	-17.4121	-74.5698	290.505	-1.49626	-100.452	270.626	20.5452	-85.8467	279.276	-33.0884	-69.4562	285.244	-17.2572	-96.3335	267.047	9.05541	-102.643	278.681	-28.2407	-25.0351	265.982	-25.7926	0.391413	294.29	-1.44175	-4.44115	
291	2.425	271.604	40.8074	-17.4747	264.413	54.2841	-51.1358	268.043	54.3713	-76.0077	271.972	43.8467	-102.568	318.607	21.6047	-66.9882	311.699	30.8175	-94.651	284.126	50.7831	-94.3544	309.279	3.87086	-75.8812	299.693	21.2069	-103.044	272.484	40.4756	-88.7612	298.632	-7.90894	-81.9795	288.665	6.88031	-103.418	267.255	29.2787	-85.4789	277.491	-22.8408	-74.3093	278.902	-8.68938	-102.124	261.713	18.5969	-104.81	279.072	-18.9664	-27.9846	265.76	-15.1969	-4.94277	288.978	5.75401	-4.76322	
292	2.43333	265.664	49.4444	-18.1156	257.134	62.162	-49.8708	262.545	64.9393	-81.8673	266.295	51.8909	-105.13	313.484	31.9745	-68.2792	307.297	42.1593	-98.0018	279.078	59.586	-96.9726	306.983	15.26	-81.5506	296.298	29.7557	-106.107	263.65	45.7929	-89.706	293.776	-0.925678	-85.224	280.907	20.3655	-105.549	259.533	33.6453	-89.6788	276.599	-12.7437	-75.7256	274.8	1.78187	-105.838	258.479	28.4674	-104.545	278.925	-12.2867	-34.2663	261.873	-12.2853	-5.2065	287.337	14.8466	-9.80163	
293	2.44167	262.988	58.3828	-22.7872	252.412	65.0154	-53.0205	254.364	70.7634	-79.4467	258.412	62.5275	-106.335	308.079	40.6587	-71.959	298.96	54.5339	-101.301	273.863	68.3701	-99.2972	301.674	23.3105	-83.2381	288.353	43.9721	-108.875	260.066	57.2449	-92.8455	289.284	11.1515	-87.1263	274.513	29.0556	-108.597	254.744	44.4642	-88.6853	275.185	-1.4675	-82.1298	271.163	11.7261	-106.504	253.684	34.7946	-105.036	273.238	-0.360337	-34.1223	258.438	-4.7276	-6.82909	282.75	25.6044	-10.6256	
294	2.45	255.236	64.8249	-22.2295	244.971	76.0575	-54.5298	245.638	80.126	-79.178	250.527	68.3888	-106.721	301.734	50.2611	-74.9792	293.026	66.5032	-103.572	266.827	79.1109	-100.306	296.589	33.513	-86.0391	279.968	51.4949	-110.381	251.684	64.7606	-93.3932	285.265	21.2705	-86.1388	269.613	38.8474	-110.524	249.431	54.7228	-90.2457	267.678	3.32225	-83.6902	263.205	19.2359	-110.908	248.65	46.5067	-105.854	271.568	5.35123	-37.5817	255.339	6.08475	-8.32791	278.814	30.5306	-13.0366	
295	2.45833	246.518	74.2375	-20.1499	237.324	82.6393	-55.3859	238.329	89.1534	-81.7321	242.935	77.1613	-107.35	295.874	64.8995	-74.6871	285.071	78.4958	-104.507	254.718	89.6914	-100.936	290.875	47.6185	-84.942	277.728	62.1488	-111.551	245.948	73.7274	-96.3079	279.713	31.68	-90.476	264.818	47.1489	-112.087	239.14	59.9375	-93.9456	265.708	16.2111	-88.8645	257.336	31.1973	-111.518	241.117	53.0517	-105.302	265.044	16.6922	-38.5126	253.204	12.5721	-14.056	274.972	43.0092	-16.3392	
296	2.46667	239.534	77.9095	-23.3384	228.416	86.4434	-56.7384	229.376	97.0572	-85.7554	234.543	84.9797	-109.447	287.099	76.096	-76.0367	277.892	86.6044	-104.171	243.954	96.3923	-101.27	283.477	55.758	-89.6527	268.144	72.0143	-112.558	235.21	80.2463	-97.2172	274.134	42.1116	-93.8807	256.288	59.2464	-112.677	232.793	67.916	-95.9874	260.701	23.9915	-90.2934	248.576	35.632	-112.556	225.642	60.7496	-100.959	259.634	24.0937	-39.3352	247.593	17.0588	-16.7767	268.181	50.6973	-15.9262	
